<svg id="color" enable-background="new 0 0 24 24" height="512" viewBox="0 0 24 24" width="512" xmlns="http://www.w3.org/2000/svg"><path d="m8 7.5c-.552 0-1-.448-1-1v-1.5c0-2.757 2.243-5 5-5 1.324 0 2.579.518 3.532 1.458.335.349.598.696.798 1.049.272.48.104 1.091-.377 1.363s-1.091.103-1.363-.377c-.118-.209-.28-.421-.481-.631-.558-.549-1.314-.862-2.109-.862-1.654 0-3 1.346-3 3v1.5c0 .552-.448 1-1 1z" fill="#607d8b"/><path d="m19 24h-14c-1.104 0-2-.896-2-2v-2c0-1.104.896-2 2-2h14c1.104 0 2 .896 2 2v2c0 1.104-.896 2-2 2z" fill="#2196f3"/><path d="m19 18h-14c-1.104 0-2-.895-2-2v-2c0-1.104.896-2 2-2h14c1.104 0 2 .896 2 2v2c0 1.104-.896 2-2 2z" fill="#64b5f6"/><path d="m19 12h-14c-1.104 0-2-.896-2-2v-2c0-1.104.896-2 2-2h14c1.104 0 2 .896 2 2v2c0 1.104-.896 2-2 2z" fill="#2196f3"/><path d="m12 0c-2.757 0-5 2.243-5 5v1h2v-1c0-1.654 1.346-3 3-3z" fill="#546d79"/><path d="m12 18h-7c-1.104 0-2 .896-2 2v2c0 1.104.896 2 2 2h7z" fill="#1d83d4"/><path d="m12 12h-7c-1.104 0-2 .896-2 2v2c0 1.104.896 2 2 2h7z" fill="#579ed6"/><path d="m12 6h-3-2-2c-1.104 0-2 .896-2 2v2c0 1.104.896 2 2 2h7z" fill="#1d83d4"/><g fill="#fff"><path d="m8.5 16h-2.5c-.552 0-1-.448-1-1s.448-1 1-1h2.5c.552 0 1 .448 1 1s-.448 1-1 1z"/><path d="m8.5 22h-2.5c-.552 0-1-.448-1-1s.448-1 1-1h2.5c.552 0 1 .448 1 1s-.448 1-1 1z"/><path d="m8.5 10h-2.5c-.552 0-1-.448-1-1s.448-1 1-1h2.5c.552 0 1 .448 1 1s-.448 1-1 1z"/></g><path d="m7 14h-1c-.552 0-1 .448-1 1s.448 1 1 1h1z" fill="#dedede"/><path d="m7 20h-1c-.552 0-1 .448-1 1s.448 1 1 1h1z" fill="#dedede"/><path d="m7 8h-1c-.552 0-1 .448-1 1s.448 1 1 1h1z" fill="#dedede"/></svg>